HIERARCHY
ROOT pelvis
{
  OFFSET 0 100 0
  CHANNELS 6 Xposition Yposition Zposition Zrotation Xrotation Yrotation
  JOINT pelvis_right_femur
  {
    OFFSET -10.78128 -3.44521 -0.5502486
    CHANNELS 3 Zrotation Xrotation Yrotation
    JOINT right_femur_tibia
    {
      OFFSET -0.8047443 -44.0398 -0.1307829
      CHANNELS 3 Zrotation Xrotation Yrotation
      JOINT right_tibia_foot
      {
        OFFSET 3.006224 -47.83518 -5
        CHANNELS 3 Zrotation Xrotation Yrotation
        End Site
        {
          OFFSET 0 -5 15
        }
      }
    }
  }
  JOINT pelvis_left_femur
  {
    OFFSET 10.78128 -3.44521 -0.5502486
    CHANNELS 3 Zrotation Xrotation Yrotation
    JOINT left_femur_tibia
    {
      OFFSET 0.8047443 -44.0398 -0.1307829
      CHANNELS 3 Zrotation Xrotation Yrotation
      JOINT left_tibia_foot
      {
        OFFSET -4.370144 -48.10324 -4.275266
        CHANNELS 3 Zrotation Xrotation Yrotation
        End Site
        {
          OFFSET 0 -5 15
        }
      }
    }
  }
  JOINT pelvis_spine1
  {
    OFFSET 0 6.468898 -3.129235
    CHANNELS 3 Zrotation Xrotation Yrotation
    JOINT spine1
    {
      OFFSET 0 23.15396 4.99043
      CHANNELS 3 Zrotation Xrotation Yrotation
      JOINT spine2
      {
        OFFSET 0 20.79997 -5.064912
        CHANNELS 3 Zrotation Xrotation Yrotation
        JOINT neck
        {
          OFFSET 0 14.38658 9.616178
          CHANNELS 3 Zrotation Xrotation Yrotation
          End Site
          {
            OFFSET 0 20 0
          }
        }
      }
      JOINT right_manubrium
      {
        OFFSET -5.722621 16.35077 3.967754
        CHANNELS 3 Zrotation Xrotation Yrotation
        JOINT right_clavicle
        {
          OFFSET -13.16364 1.694482 -4.693211
          CHANNELS 3 Zrotation Xrotation Yrotation
          JOINT right_humerus
          {
            OFFSET -28.5034 -0.3100689 -2.792744
            CHANNELS 3 Zrotation Xrotation Yrotation
            JOINT right_radius
            {
              OFFSET -25.15693 0.02248979 -1.271978
              CHANNELS 3 Zrotation Xrotation Yrotation
              End Site
              {
                OFFSET -15 0 0
              }
            }
          }
        }
      }
      JOINT left_manubrium
      {
        OFFSET 5.722621 16.35077 3.967754
        CHANNELS 3 Zrotation Xrotation Yrotation
        JOINT left_clavicle
        {
          OFFSET 13.16364 1.694482 -4.693211
          CHANNELS 3 Zrotation Xrotation Yrotation
          JOINT left_humerus
          {
            OFFSET 29.39168 -1.063119 -2.237045
            CHANNELS 3 Zrotation Xrotation Yrotation
            JOINT left_radius
            {
              OFFSET 24.59957 -0.9528479 0.9047498
              CHANNELS 3 Zrotation Xrotation Yrotation
              End Site
              {
                OFFSET 15 -0 -0
              }
            }
          }
        }
      }
    }
  }
}
MOTION
Frames: 19
Frame Time: 0.0416666666667
-352.1299 118.3753 -236.2338 8.060386 -6.055152 61.85621 6.696938 16.90901 1.868472 -0 15.78015 -0 -8.483638 -13.276 -3.44842 4.512734 -16.72493 -3.496965 -0 8.530417 -0 2.663939 -2.715512 17.19639 1.339771 -3.2945 6.800889 0.3462445 15.36252 -5.524111 2.138328 19.70388 0.4774286 -1.564357 -19.37807 4.902716 -3.046491 -31.42432 12.05457 89.05397 14.53738 -7.013002 -0 0 29.29541 -23.99004 17.78849 16.71018 1.875135 -20.03234 -6.315513 -94.9529 13.4619 35.95804 0 0 -6.118742 4.021361 15.58269 7.273771
-346.4705 118.3456 -234.2227 7.992127 -6.145213 61.21389 6.696938 16.90901 1.868472 -0 15.78015 -0 -8.483638 -13.276 -3.44842 4.512734 -16.72493 -3.496965 -0 8.530417 -0 2.663939 -2.715512 17.19639 1.339771 -3.2945 6.800889 0.3462445 15.36252 -5.524111 2.138328 19.70388 0.4774286 -1.564357 -19.37807 4.902716 -3.046491 -31.42432 12.05457 89.05397 14.53738 -7.013002 -0 0 29.29541 -23.99004 17.78849 16.71018 1.875135 -20.03234 -6.315513 -94.9529 13.4619 35.95804 0 0 -6.118742 4.021361 15.58269 7.273771
-340.834 118.3158 -232.1481 7.922845 -6.234507 60.57135 6.696938 16.90901 1.868472 -0 15.78015 -0 -8.483638 -13.276 -3.44842 4.512734 -16.72493 -3.496965 -0 8.530417 -0 2.663939 -2.715512 17.19639 1.339771 -3.2945 6.800889 0.3462445 15.36252 -5.524111 2.138328 19.70388 0.4774286 -1.564357 -19.37807 4.902716 -3.046491 -31.42432 12.05457 89.05397 14.53738 -7.013002 -0 0 29.29541 -23.99004 17.78849 16.71018 1.875135 -20.03234 -6.315513 -94.9529 13.4619 35.95804 0 0 -6.118742 4.021361 15.58269 7.273771
-335.2213 118.286 -230.0102 7.852549 -6.323023 59.92859 6.696938 16.90901 1.868472 -0 15.78015 -0 -8.483638 -13.276 -3.44842 4.512734 -16.72493 -3.496965 -0 8.530417 -0 2.663939 -2.715512 17.19639 1.339771 -3.2945 6.800889 0.3462445 15.36252 -5.524111 2.138328 19.70388 0.4774286 -1.564357 -19.37807 4.902716 -3.046491 -31.42432 12.05457 89.05397 14.53738 -7.013002 -0 0 29.29541 -23.99004 17.78849 16.71018 1.875135 -20.03234 -6.315513 -94.9529 13.4619 35.95804 0 0 -6.118742 4.021361 15.58269 7.273771
-329.633 118.2562 -227.8092 7.781245 -6.41075 59.28561 6.696938 16.90901 1.868472 -0 15.78015 -0 -8.483638 -13.276 -3.44842 4.512734 -16.72493 -3.496965 -0 8.530417 -0 2.663939 -2.715512 17.19639 1.339771 -3.2945 6.800889 0.3462445 15.36252 -5.524111 2.138328 19.70388 0.4774286 -1.564357 -19.37807 4.902716 -3.046491 -31.42432 12.05457 89.05397 14.53738 -7.013002 -0 0 29.29541 -23.99004 17.78849 16.71018 1.875135 -20.03234 -6.315513 -94.9529 13.4619 35.95804 0 0 -6.118742 4.021361 15.58269 7.273771
-324.0699 118.2264 -225.5455 7.708943 -6.497675 58.64241 6.696938 16.90901 1.868472 -0 15.78015 -0 -8.483638 -13.276 -3.44842 4.512734 -16.72493 -3.496965 -0 8.530417 -0 2.663939 -2.715512 17.19639 1.339771 -3.2945 6.800889 0.3462445 15.36252 -5.524111 2.138328 19.70388 0.4774286 -1.564357 -19.37807 4.902716 -3.046491 -31.42432 12.05457 89.05397 14.53738 -7.013002 -0 0 29.29541 -23.99004 17.78849 16.71018 1.875135 -20.03234 -6.315513 -94.9529 13.4619 35.95804 0 0 -6.118742 4.021361 15.58269 7.273771
-318.5325 118.1966 -223.2193 7.635651 -6.583789 57.999 6.696938 16.90901 1.868472 -0 15.78015 -0 -8.483638 -13.276 -3.44842 4.512734 -16.72493 -3.496965 -0 8.530417 -0 2.663939 -2.715512 17.19639 1.339771 -3.2945 6.800889 0.3462445 15.36252 -5.524111 2.138328 19.70388 0.4774286 -1.564357 -19.37807 4.902716 -3.046491 -31.42432 12.05457 89.05397 14.53738 -7.013002 -0 0 29.29541 -23.99004 17.78849 16.71018 1.875135 -20.03234 -6.315513 -94.9529 13.4619 35.95804 0 0 -6.118742 4.021361 15.58269 7.273771
-313.0218 118.1668 -220.8309 7.561377 -6.669079 57.35536 6.696938 16.90901 1.868472 -0 15.78015 -0 -8.483638 -13.276 -3.44842 4.512734 -16.72493 -3.496965 -0 8.530417 -0 2.663939 -2.715512 17.19639 1.339771 -3.2945 6.800889 0.3462445 15.36252 -5.524111 2.138328 19.70388 0.4774286 -1.564357 -19.37807 4.902716 -3.046491 -31.42432 12.05457 89.05397 14.53738 -7.013002 -0 0 29.29541 -23.99004 17.78849 16.71018 1.875135 -20.03234 -6.315513 -94.9529 13.4619 35.95804 0 0 -6.118742 4.021361 15.58269 7.273771
-307.5382 118.137 -218.3806 7.48613 -6.753535 56.71149 6.696938 16.90901 1.868472 -0 15.78015 -0 -8.483638 -13.276 -3.44842 4.512734 -16.72493 -3.496965 -0 8.530417 -0 2.663939 -2.715512 17.19639 1.339771 -3.2945 6.800889 0.3462445 15.36252 -5.524111 2.138328 19.70388 0.4774286 -1.564357 -19.37807 4.902716 -3.046491 -31.42432 12.05457 89.05397 14.53738 -7.013002 -0 0 29.29541 -23.99004 17.78849 16.71018 1.875135 -20.03234 -6.315513 -94.9529 13.4619 35.95804 0 0 -6.118742 4.021361 15.58269 7.273771
-302.0826 118.1072 -215.8687 7.409919 -6.837146 56.06741 6.696938 16.90901 1.868472 -0 15.78015 -0 -8.483638 -13.276 -3.44842 4.512734 -16.72493 -3.496965 -0 8.530417 -0 2.663939 -2.715512 17.19639 1.339771 -3.2945 6.800889 0.3462445 15.36252 -5.524111 2.138328 19.70388 0.4774286 -1.564357 -19.37807 4.902716 -3.046491 -31.42432 12.05457 89.05397 14.53738 -7.013002 -0 0 29.29541 -23.99004 17.78849 16.71018 1.875135 -20.03234 -6.315513 -94.9529 13.4619 35.95804 0 0 -6.118742 4.021361 15.58269 7.273771
-296.6556 118.0775 -213.2956 7.332752 -6.9199 55.42309 6.696938 16.90901 1.868472 -0 15.78015 -0 -8.483638 -13.276 -3.44842 4.512734 -16.72493 -3.496965 -0 8.530417 -0 2.663939 -2.715512 17.19639 1.339771 -3.2945 6.800889 0.3462445 15.36252 -5.524111 2.138328 19.70388 0.4774286 -1.564357 -19.37807 4.902716 -3.046491 -31.42432 12.05457 89.05397 14.53738 -7.013002 -0 0 29.29541 -23.99004 17.78849 16.71018 1.875135 -20.03234 -6.315513 -94.9529 13.4619 35.95804 0 0 -6.118742 4.021361 15.58269 7.273771
-291.2579 118.0477 -210.6615 7.25464 -7.001788 54.77856 6.696938 16.90901 1.868472 -0 15.78015 -0 -8.483638 -13.276 -3.44842 4.512734 -16.72493 -3.496965 -0 8.530417 -0 2.663939 -2.715512 17.19639 1.339771 -3.2945 6.800889 0.3462445 15.36252 -5.524111 2.138328 19.70388 0.4774286 -1.564357 -19.37807 4.902716 -3.046491 -31.42432 12.05457 89.05397 14.53738 -7.013002 -0 0 29.29541 -23.99004 17.78849 16.71018 1.875135 -20.03234 -6.315513 -94.9529 13.4619 35.95804 0 0 -6.118742 4.021361 15.58269 7.273771
-285.8902 118.0179 -207.9669 7.17559 -7.082798 54.1338 6.696938 16.90901 1.868472 -0 15.78015 -0 -8.483638 -13.276 -3.44842 4.512734 -16.72493 -3.496965 -0 8.530417 -0 2.663939 -2.715512 17.19639 1.339771 -3.2945 6.800889 0.3462445 15.36252 -5.524111 2.138328 19.70388 0.4774286 -1.564357 -19.37807 4.902716 -3.046491 -31.42432 12.05457 89.05397 14.53738 -7.013002 -0 0 29.29541 -23.99004 17.78849 16.71018 1.875135 -20.03234 -6.315513 -94.9529 13.4619 35.95804 0 0 -6.118742 4.021361 15.58269 7.273771
-280.5532 117.9881 -205.2119 7.095612 -7.16292 53.48881 6.696938 16.90901 1.868472 -0 15.78015 -0 -8.483638 -13.276 -3.44842 4.512734 -16.72493 -3.496965 -0 8.530417 -0 2.663939 -2.715512 17.19639 1.339771 -3.2945 6.800889 0.3462445 15.36252 -5.524111 2.138328 19.70388 0.4774286 -1.564357 -19.37807 4.902716 -3.046491 -31.42432 12.05457 89.05397 14.53738 -7.013002 -0 0 29.29541 -23.99004 17.78849 16.71018 1.875135 -20.03234 -6.315513 -94.9529 13.4619 35.95804 0 0 -6.118742 4.021361 15.58269 7.273771
-275.2475 117.9583 -202.3971 7.014717 -7.242144 52.8436 6.696938 16.90901 1.868472 -0 15.78015 -0 -8.483638 -13.276 -3.44842 4.512734 -16.72493 -3.496965 -0 8.530417 -0 2.663939 -2.715512 17.19639 1.339771 -3.2945 6.800889 0.3462445 15.36252 -5.524111 2.138328 19.70388 0.4774286 -1.564357 -19.37807 4.902716 -3.046491 -31.42432 12.05457 89.05397 14.53738 -7.013002 -0 0 29.29541 -23.99004 17.78849 16.71018 1.875135 -20.03234 -6.315513 -94.9529 13.4619 35.95804 0 0 -6.118742 4.021361 15.58269 7.273771
-269.9739 117.9285 -199.5228 6.932913 -7.320458 52.19816 6.696938 16.90901 1.868472 -0 15.78015 -0 -8.483638 -13.276 -3.44842 4.512734 -16.72493 -3.496965 -0 8.530417 -0 2.663939 -2.715512 17.19639 1.339771 -3.2945 6.800889 0.3462445 15.36252 -5.524111 2.138328 19.70388 0.4774286 -1.564357 -19.37807 4.902716 -3.046491 -31.42432 12.05457 89.05397 14.53738 -7.013002 -0 0 29.29541 -23.99004 17.78849 16.71018 1.875135 -20.03234 -6.315513 -94.9529 13.4619 35.95804 0 0 -6.118742 4.021361 15.58269 7.273771
-264.7329 117.8987 -196.5892 6.85021 -7.397854 51.5525 6.696938 16.90901 1.868472 -0 15.78015 -0 -8.483638 -13.276 -3.44842 4.512734 -16.72493 -3.496965 -0 8.530417 -0 2.663939 -2.715512 17.19639 1.339771 -3.2945 6.800889 0.3462445 15.36252 -5.524111 2.138328 19.70388 0.4774286 -1.564357 -19.37807 4.902716 -3.046491 -31.42432 12.05457 89.05397 14.53738 -7.013002 -0 0 29.29541 -23.99004 17.78849 16.71018 1.875135 -20.03234 -6.315513 -94.9529 13.4619 35.95804 0 0 -6.118742 4.021361 15.58269 7.273771
-259.5253 117.8689 -193.5969 6.766618 -7.47432 50.90661 6.696938 16.90901 1.868472 -0 15.78015 -0 -8.483638 -13.276 -3.44842 4.512734 -16.72493 -3.496965 -0 8.530417 -0 2.663939 -2.715512 17.19639 1.339771 -3.2945 6.800889 0.3462445 15.36252 -5.524111 2.138328 19.70388 0.4774286 -1.564357 -19.37807 4.902716 -3.046491 -31.42432 12.05457 89.05397 14.53738 -7.013002 -0 0 29.29541 -23.99004 17.78849 16.71018 1.875135 -20.03234 -6.315513 -94.9529 13.4619 35.95804 0 0 -6.118742 4.021361 15.58269 7.273771
-254.3517 117.8392 -190.5461 6.682147 -7.549846 50.2605 6.696938 16.90901 1.868472 -0 15.78015 -0 -8.483638 -13.276 -3.44842 4.512734 -16.72493 -3.496965 -0 8.530417 -0 2.663939 -2.715512 17.19639 1.339771 -3.2945 6.800889 0.3462445 15.36252 -5.524111 2.138328 19.70388 0.4774286 -1.564357 -19.37807 4.902716 -3.046491 -31.42432 12.05457 89.05397 14.53738 -7.013002 -0 0 29.29541 -23.99004 17.78849 16.71018 1.875135 -20.03234 -6.315513 -94.9529 13.4619 35.95804 0 0 -6.118742 4.021361 15.58269 7.273771
